<svg width="134" height="47" viewBox="0 0 134 47" fill="none" xmlns="http://www.w3.org/2000/svg">
<g filter="url(#filter0_d_7778_49)">
<path fill-rule="evenodd" clip-rule="evenodd" d="M6.22988 3.12793C3.77338 3.68889 3.53038 5.35334 5.47844 8.27437C5.70098 8.60807 5.93508 8.93009 5.99867 8.98982C6.17589 9.15648 6.96305 9.78471 7.73275 10.3739C8.42673 10.9051 10.7904 12.2281 11.0586 12.2355C11.1369 12.2376 11.461 12.3783 11.7789 12.5481C12.0968 12.7179 12.4271 12.8573 12.5129 12.858C12.5987 12.8586 12.8328 12.937 13.0331 13.0324C13.2335 13.1277 13.7512 13.3258 14.1834 13.4728C16.2472 14.174 15.8836 15.5078 13.7665 15.0023C13.4999 14.9386 12.8136 14.7927 12.2414 14.678C11.6691 14.5633 11.0969 14.4194 10.9697 14.358C9.53399 13.6649 6.6345 12.8776 6.6345 13.1807C6.6345 13.6332 8.11182 16.0046 8.78834 16.6381C9.58116 17.3806 11.6863 18.7574 12.0288 18.7574C12.1105 18.7574 12.3998 18.8639 12.6718 18.9942C13.489 19.3856 14.2976 19.6371 14.7365 19.6365C16.1818 19.6344 16.9454 20.1387 16.5325 20.8229C16.2998 21.2084 13.6774 21.3038 12.5803 20.9666C11.2102 20.5455 10.4807 20.6054 10.7784 21.1147C10.8961 21.3159 13.4682 23.1466 13.6358 23.1485C13.7033 23.1491 13.9894 23.2735 14.2716 23.4246C15.3823 24.0197 19.5873 24.3028 21.4898 23.9106C23.7026 23.4544 23.8395 23.4213 24.0756 23.2841C24.2028 23.2102 24.4393 23.1497 24.6011 23.1497C26.1164 23.1497 29.1286 21.3508 30.8871 19.3955C32.4005 17.7128 32.458 17.4317 31.492 16.4357C31.291 16.2287 31.0407 15.8616 30.9355 15.62C30.6834 15.0406 27.5055 11.5941 26.403 10.7043C25.3012 9.81508 23.3775 8.40351 22.8331 8.08462C22.6029 7.94972 22.1025 7.64213 21.721 7.40092C21.3395 7.1596 20.7412 6.8175 20.3915 6.64067C20.0418 6.46372 19.6517 6.26531 19.5245 6.19981C19.1077 5.98483 17.3438 5.31619 16.5766 5.08239C16.1633 4.9564 15.6951 4.79614 15.5361 4.72624C15.3771 4.65634 14.961 4.51503 14.6113 4.41212C12.9554 3.9252 12.563 3.80661 12.2331 3.69379C12.0379 3.62702 11.7354 3.57243 11.5608 3.57243C11.3863 3.57243 11.1299 3.50479 10.991 3.42221C10.3505 3.04096 7.40709 2.85912 6.22988 3.12793ZM35.6808 17.7236C35.0879 18.3248 34.2564 20.4848 33.7955 22.6213C33.5442 23.7861 33.4885 23.9199 33.2258 23.9882C31.474 24.4433 30.9227 26.2195 32.2904 27.0012C32.5719 27.1621 32.82 27.3129 32.8416 27.3364C32.8633 27.36 32.7975 27.797 32.6953 28.3077C32.0334 31.6177 32.2214 32.8129 33.4038 32.8129C34.1052 32.8129 34.4318 32.359 34.5943 31.1582C34.9877 28.2535 35.3173 26.9166 35.5814 27.1545C35.6803 27.2438 35.7638 27.2444 35.8448 27.1564C35.91 27.0857 36.3173 27.0446 36.7504 27.0653L37.5375 27.1028L37.8452 28.4205C38.6334 31.7961 39.1565 32.9384 39.9147 32.9384C40.5094 32.9384 40.7057 32.3109 40.5076 31.0435C40.4384 30.6018 40.3306 29.9014 40.2677 29.4873C40.2048 29.0731 40.0694 28.3513 39.9667 27.8831C39.7856 27.057 39.787 27.0235 40.0135 26.7536C40.7882 25.8297 40.6123 24.7208 39.6132 24.2318C39.0812 23.9714 39.0152 23.7185 38.9906 21.8458C38.9832 21.2861 38.9522 20.941 38.9216 21.0791C38.7368 21.9127 38.6042 21.5536 38.4438 19.7853C38.3368 18.6069 38.0728 18.0044 37.6632 18.0044C37.5838 18.0044 37.3642 17.8632 37.1753 17.6907C36.7008 17.2572 36.1283 17.2698 35.6808 17.7236ZM85.6823 17.5958C85.0851 17.9979 84.5421 19.2989 83.8138 22.0725L83.3222 23.9444L82.8064 24.1076C81.2061 24.6141 80.9301 27.1656 82.4756 27.1656C82.7651 27.1656 82.7643 27.4136 82.4699 28.797C82.3451 29.3837 82.2088 30.3541 82.1671 30.9533L82.0912 32.0429L82.4459 32.4279C83.3517 33.4111 84.2014 32.7894 84.4927 30.9305C85.019 27.5712 85.1734 26.9438 85.4195 27.1656C85.5252 27.2608 85.5955 27.2627 85.6473 27.1717C85.7386 27.0112 87.2875 26.9947 87.3778 27.1533C87.4133 27.2154 87.6215 28.0389 87.8405 28.9831C88.5943 32.2317 89.5807 33.7254 90.2684 32.6594C90.5511 32.2213 90.3404 30.1815 89.7488 27.6316C89.6187 27.0705 89.6263 27.0348 89.9734 26.5776C90.6055 25.7454 90.3347 24.5825 89.418 24.1916C88.9482 23.9913 88.8299 23.5508 88.8299 22.0018C88.8299 21.6557 88.7806 21.5183 88.6565 21.5183C88.5611 21.5183 88.4831 21.4641 88.4831 21.3977C88.4831 19.7129 88.109 18.2168 87.648 18.0586C87.5032 18.0089 87.2239 17.8352 87.0271 17.6726C86.6081 17.3262 86.1238 17.2986 85.6823 17.5958ZM59.4294 17.5843C59.386 17.6313 59.3505 18.1263 59.3504 18.6842C59.3502 21.4451 58.9091 24.3664 58.1021 26.952C57.7003 28.2397 57.6177 28.1348 57.2825 25.9106C57.1421 24.9788 56.9541 23.8494 56.865 23.4007C56.0306 19.2048 55.8417 18.6512 55.0554 18.0985C53.7079 17.1513 53.276 18.4917 53.9105 21.6513C54.4685 24.4304 54.9387 27.5873 55.0237 29.125C55.0857 30.2489 55.1461 30.5692 55.3635 30.9305C55.5091 31.172 55.6653 31.5109 55.7107 31.6834C56.5037 34.6938 60.7084 29.6459 61.826 24.3419C62.7026 20.1811 62.3567 17.8504 60.8376 17.6815L60.0803 17.5973L60.0001 19.549C59.8856 22.3392 59.5766 24.2222 58.8641 26.4754C58.4922 27.6514 57.9644 28.723 57.8294 28.5764C57.7517 28.4921 57.7886 28.29 57.9412 27.9649C59.091 25.5148 60.375 16.5576 59.4294 17.5843ZM99.9858 17.8297C98.9049 17.9227 97.0242 18.0142 95.8065 18.033C94.5889 18.0517 93.6525 18.1087 93.7257 18.1594C93.7988 18.2101 94.1288 18.2524 94.4588 18.2535C94.7889 18.2545 95.0963 18.321 95.1421 18.4014C95.2046 18.5112 94.7948 18.5271 93.4864 18.4656C90.7571 18.3374 90.3813 18.9801 92.0409 20.9376C92.4309 21.3977 93.0069 21.5571 94.5523 21.6329L96.0552 21.7065L96.0394 22.1458C95.8561 27.2346 95.8587 30.9541 96.0457 31.4858C96.5331 32.8711 97.7878 32.8859 98.0257 31.5092C98.1281 30.9165 98.3073 30.9272 98.3176 31.5266C98.3242 31.9041 98.3455 31.9475 98.4251 31.7462C98.4798 31.6081 98.5281 29.2221 98.5326 26.444C98.537 23.6659 98.5739 21.3928 98.6144 21.3928C98.9168 21.3928 101.672 20.8504 101.933 20.7395C102.138 20.6524 102.327 20.4301 102.437 20.1491C102.534 19.9014 102.72 19.4639 102.852 19.1772C103.081 18.6757 103.083 18.6428 102.888 18.3199C102.776 18.1353 102.713 17.904 102.748 17.806C102.823 17.5927 102.73 17.5935 99.9858 17.8297ZM42.5299 18.0529C42.3391 18.1431 42.1117 18.3103 42.0244 18.4245C41.9372 18.5385 41.7999 18.6319 41.7193 18.6319C41.6389 18.6319 41.4567 18.7342 41.3145 18.859L41.056 19.0863L41.2606 20.114C41.3838 20.7333 41.5226 21.1418 41.6095 21.1418C41.8015 21.1418 41.8436 21.2723 42.3589 23.4635C42.6023 24.4988 42.9615 26.0202 43.1571 26.8442C43.5743 28.6028 43.5528 28.4205 43.3432 28.4205C43.106 28.4205 43.0133 28.166 42.7036 26.6636C42.5542 25.9389 42.3909 25.2943 42.3406 25.2312C42.2268 25.0883 42.3237 25.8491 42.5517 26.8879C42.7607 27.8403 42.7072 28.0871 42.3259 27.9297C40.4551 27.1576 40.339 29.6908 42.202 30.6358C43.1311 31.1072 43.3216 31.2554 43.4596 31.614C43.8129 32.5318 44.8158 32.831 45.6204 32.2586C45.861 32.0874 45.9484 32.0879 46.4636 32.2633C52.5058 34.3196 54.7975 29.7041 50.496 24.1425C46.9176 19.516 44.0579 17.3299 42.5299 18.0529ZM66.5917 18.1883C66.0862 18.3839 65.5381 18.9026 65.2884 19.4216C65.1956 19.6144 65.0033 19.8202 64.861 19.8789C63.2893 20.5276 62.595 27.5649 63.8229 30.3999C65.264 33.7265 69.0497 33.1718 70.2255 29.4615C71.1046 26.6882 70.3073 19.523 69.0655 19.0356C68.9678 18.9973 68.7009 18.7496 68.4723 18.4852C68.0034 17.9431 67.4509 17.8557 66.5917 18.1883ZM72.3263 18.1342C71.8546 18.34 71.7942 18.7122 71.9358 20.537C72.2762 24.9255 72.4294 26.6558 72.5328 27.2828C72.5945 27.6578 72.6451 28.9223 72.6451 30.0925C72.6451 32.7751 72.6798 32.8179 74.4948 32.372C75.8585 32.0371 77.9987 31.8011 79.4557 31.8252C81.2613 31.8551 81.5851 31.6068 81.1492 30.5269C81.0577 30.3002 80.9558 29.9729 80.9227 29.7997C80.7802 29.0525 78.7144 28.7875 76.4601 29.2271C75.3295 29.4475 75.4269 29.7334 75.173 25.4518C75.0508 23.3919 74.8799 21.1983 74.7933 20.5771L74.6357 19.4476L74.6231 20.3021C74.6096 21.2135 74.4388 21.3479 74.3189 20.5413C74.2396 20.0072 74.0374 18.9203 73.9597 18.6106C73.8657 18.2361 72.8031 17.9262 72.3263 18.1342ZM105.137 18.221C103.29 19.0114 102.973 28.8634 104.774 29.484C104.908 29.5301 105.22 29.8927 105.469 30.2898C107.837 34.0754 111.72 32.8111 112.872 27.8795C113.606 24.7396 113.38 19.169 112.49 18.4557L112.162 18.1927L111.908 18.5378C111.751 18.7501 111.541 18.8829 111.361 18.8829C110.616 18.8829 110.564 19.1009 110.558 22.2448C110.545 28.6265 109.928 30.3123 108.085 29.0016C107.708 28.7335 107.032 26.189 106.864 24.4047L106.763 23.338L106.8 24.7654C106.821 25.5595 106.795 26.1177 106.742 26.0236C106.314 25.2724 106.283 20.8985 106.702 20.5298C107.769 19.5923 106.457 17.6563 105.137 18.221ZM115.413 18.3533C114.863 18.6515 114.719 19.1611 114.754 20.6914C114.775 21.5976 114.744 21.9496 114.639 21.9883C114.531 22.0279 114.491 21.7473 114.483 20.8699C114.47 19.5612 114.356 18.914 114.207 19.2966C114.063 19.6631 114.237 28.9524 114.415 30.4523C114.611 32.1032 114.761 32.3892 115.495 32.5087C116.482 32.6692 116.5 32.5937 116.431 28.7603C116.365 25.1326 116.426 24.9029 116.923 26.919C118.298 32.4934 118.287 32.4618 118.917 32.4122L119.407 32.3737L119.652 31.4952C120.07 29.9944 120.437 28.1296 120.418 27.6048C120.4 27.1082 120.999 24.233 121.398 22.8987C121.596 22.2347 121.835 22.0633 121.835 22.585C121.835 22.7231 121.887 22.9207 121.95 23.0242C122.012 23.1278 122.174 23.7772 122.309 24.4674C122.444 25.1577 122.636 26.1459 122.737 26.6636C123.019 28.116 123.28 30.1961 123.28 30.9862C123.28 31.8998 123.395 32.1173 124.077 32.4922C125.44 33.2422 126.157 31.6837 125.662 29.048C125.104 26.0826 124.866 24.7563 124.605 23.1579C124.198 20.6663 123.816 19.5025 123.136 18.6753C122.547 17.9584 120.808 18.3912 120.684 19.2859C120.136 23.2224 118.791 28.7914 118.604 27.8961C118.109 25.5252 117.27 20.4414 117.269 19.8116C117.269 19.4652 116.766 18.5141 116.496 18.348C116.186 18.1578 115.77 18.1598 115.413 18.3533ZM72.6952 18.7397C72.6488 18.922 72.6214 20.3418 72.6343 21.8948C72.6696 26.1877 72.455 25.2987 72.1009 19.6859C72.0404 18.7287 72.0522 18.6575 72.3019 18.4676C72.6425 18.2086 72.8021 18.319 72.6952 18.7397ZM116.787 19.981C116.844 20.1018 116.954 20.5959 117.032 21.0791C117.109 21.5622 117.272 22.479 117.394 23.1162C117.721 24.8249 117.501 25.1303 117.121 23.495C116.38 20.3059 116.239 18.8279 116.787 19.981ZM67.41 20.2947C67.9458 21.0525 68.3932 23.7108 68.408 26.2244C68.4294 29.8689 67.5456 31.5786 66.0688 30.7496C65.2627 30.2971 64.9547 29.3748 65.6585 29.5209C65.9944 29.5905 65.9938 29.5974 65.7682 28.1068C65.4574 26.0531 65.6067 23.4229 66.1174 21.9575C66.6461 20.4404 67.1 19.8565 67.41 20.2947ZM93.2002 20.8183C94.0374 21.0133 94.1714 21.1006 93.7857 21.2003C93.4341 21.291 92.3882 21.0019 92.3262 20.7967C92.2684 20.6057 92.2895 20.6063 93.2002 20.8183ZM36.7911 21.9889C37.1187 24.3007 37.1244 24.2737 36.3126 24.2773C35.7188 24.2798 35.6985 24.1449 36.0631 22.6284C36.5089 20.7751 36.6068 20.689 36.7911 21.9889ZM86.7581 22.868C86.8967 24.218 86.8726 24.274 86.1489 24.2773C85.5682 24.2799 85.5635 24.2511 85.8994 22.7636C86.3704 20.6784 86.5352 20.6984 86.7581 22.868ZM66.5272 21.717C66.5327 21.8632 66.5601 21.8929 66.597 21.7929C66.6304 21.7023 66.6263 21.594 66.5879 21.5523C66.5495 21.5106 66.5222 21.5847 66.5272 21.717ZM45.8789 22.6957C48.3996 24.6077 51.6788 29.0445 51.1926 29.8848C50.7525 30.6455 47.9392 30.5744 46.1374 29.7571C45.6476 29.5349 45.6837 29.6548 45.2512 26.8118C45.0587 25.5475 44.7993 23.9708 44.6747 23.3081C44.3786 21.735 44.5186 21.6637 45.8789 22.6957ZM42.0097 24.1537C42.0097 24.2457 42.0444 24.2833 42.0868 24.2374C42.1291 24.1913 42.1291 24.116 42.0868 24.07C42.0444 24.0241 42.0097 24.0617 42.0097 24.1537ZM35.3879 28.1798C35.2817 28.6228 35.1702 29.1829 35.1399 29.4245C34.9857 30.6562 34.9597 31.1814 35.0529 31.1814C35.1097 31.1814 35.1896 30.834 35.2304 30.4091C35.2713 29.9843 35.3874 29.1945 35.4883 28.654C35.7173 27.4269 35.6473 27.0963 35.3879 28.1798ZM85.2163 28.3968C85.0511 29.2024 84.8097 31.6386 84.9529 31.056C85.058 30.6283 85.4955 27.52 85.4565 27.4777C85.4333 27.4525 85.3252 27.866 85.2163 28.3968ZM76.9803 32.6142L75.5931 32.758L77.9361 32.7604C79.5233 32.7622 80.2661 32.7204 80.2389 32.631C80.1833 32.4486 78.6542 32.4407 76.9803 32.6142ZM74.8416 32.8756C74.8416 32.9101 74.8676 32.9384 74.8994 32.9384C74.9312 32.9384 74.9572 32.9101 74.9572 32.8756C74.9572 32.8411 74.9312 32.8129 74.8994 32.8129C74.8676 32.8129 74.8416 32.8411 74.8416 32.8756Z" fill="white"/>
</g>
<g filter="url(#filter1_f_7778_49)">
<path fill-rule="evenodd" clip-rule="evenodd" d="M5.04848 3.12793C2.59198 3.68889 2.34898 5.35334 4.29705 8.27437C4.51959 8.60807 4.75369 8.93009 4.81727 8.98982C4.99449 9.15648 5.78165 9.78471 6.55135 10.3739C7.24533 10.9051 9.609 12.2281 9.8772 12.2355C9.95546 12.2376 10.2796 12.3783 10.5975 12.5481C10.9155 12.7179 11.2457 12.8573 11.3315 12.858C11.4173 12.8586 11.6514 12.937 11.8517 13.0324C12.0521 13.1277 12.5698 13.3258 13.002 13.4728C15.0658 14.174 14.7022 15.5078 12.5851 15.0023C12.3186 14.9386 11.6322 14.7927 11.06 14.678C10.4877 14.5633 9.91547 14.4194 9.7883 14.358C8.3526 13.6649 5.4531 12.8776 5.4531 13.1807C5.4531 13.6332 6.93042 16.0046 7.60694 16.6381C8.39976 17.3806 10.5049 18.7574 10.8474 18.7574C10.9291 18.7574 11.2185 18.8639 11.4904 18.9942C12.3076 19.3856 13.1162 19.6371 13.5551 19.6365C15.0004 19.6344 15.7641 20.1387 15.3511 20.8229C15.1184 21.2084 12.496 21.3038 11.3989 20.9666C10.0288 20.5455 9.29929 20.6054 9.59697 21.1147C9.71466 21.3159 12.2868 23.1466 12.4544 23.1485C12.5219 23.1491 12.808 23.2735 13.0902 23.4246C14.201 24.0197 18.4059 24.3028 20.3084 23.9106C22.5212 23.4544 22.6581 23.4213 22.8942 23.2841C23.0214 23.2102 23.2579 23.1497 23.4197 23.1497C24.935 23.1497 27.9472 21.3508 29.7057 19.3955C31.2191 17.7128 31.2766 17.4317 30.3106 16.4357C30.1096 16.2287 29.8594 15.8616 29.7542 15.62C29.502 15.0406 26.3241 11.5941 25.2216 10.7043C24.1198 9.81508 22.1961 8.40351 21.6517 8.08462C21.4215 7.94972 20.9211 7.64213 20.5396 7.40092C20.1581 7.1596 19.5598 6.8175 19.2101 6.64067C18.8604 6.46372 18.4703 6.26531 18.3431 6.19981C17.9263 5.98483 16.1624 5.31619 15.3952 5.08239C14.9819 4.9564 14.5137 4.79614 14.3547 4.72624C14.1958 4.65634 13.7796 4.51503 13.4299 4.41212C11.7741 3.9252 11.3816 3.80661 11.0518 3.69379C10.8565 3.62702 10.554 3.57243 10.3794 3.57243C10.2049 3.57243 9.94853 3.50479 9.80957 3.42221C9.16912 3.04096 6.22569 2.85912 5.04848 3.12793ZM34.4994 17.7236C33.9065 18.3248 33.075 20.4848 32.6141 22.6213C32.3628 23.7861 32.3071 23.9199 32.0444 23.9882C30.2926 24.4433 29.7413 26.2195 31.109 27.0012C31.3905 27.1621 31.6386 27.3129 31.6603 27.3364C31.6819 27.36 31.6161 27.797 31.5139 28.3077C30.8521 31.6177 31.04 32.8129 32.2224 32.8129C32.9238 32.8129 33.2504 32.359 33.4129 31.1582C33.8063 28.2535 34.1359 26.9166 34.4 27.1545C34.4989 27.2438 34.5824 27.2444 34.6634 27.1564C34.7286 27.0857 35.1359 27.0446 35.569 27.0653L36.3561 27.1028L36.6638 28.4205C37.452 31.7961 37.9751 32.9384 38.7333 32.9384C39.328 32.9384 39.5243 32.3109 39.3262 31.0435C39.257 30.6018 39.1492 29.9014 39.0863 29.4873C39.0234 29.0731 38.888 28.3513 38.7854 27.8831C38.6042 27.057 38.6056 27.0235 38.8321 26.7536C39.6068 25.8297 39.4309 24.7208 38.4318 24.2318C37.8998 23.9714 37.8338 23.7185 37.8092 21.8458C37.8018 21.2861 37.7708 20.941 37.7402 21.0791C37.5554 21.9127 37.4228 21.5536 37.2624 19.7853C37.1554 18.6069 36.8914 18.0044 36.4818 18.0044C36.4024 18.0044 36.1828 17.8632 35.9939 17.6907C35.5194 17.2572 34.9469 17.2698 34.4994 17.7236ZM84.5009 17.5958C83.9037 17.9979 83.3607 19.2989 82.6324 22.0725L82.1408 23.9444L81.625 24.1076C80.0247 24.6141 79.7487 27.1656 81.2942 27.1656C81.5837 27.1656 81.5829 27.4136 81.2885 28.797C81.1637 29.3837 81.0274 30.3541 80.9857 30.9533L80.9099 32.0429L81.2645 32.4279C82.1703 33.4111 83.02 32.7894 83.3113 30.9305C83.8376 27.5712 83.992 26.9438 84.2381 27.1656C84.3438 27.2608 84.4141 27.2627 84.4659 27.1717C84.5572 27.0112 86.1061 26.9947 86.1964 27.1533C86.2319 27.2154 86.4401 28.0389 86.6591 28.9831C87.4129 32.2317 88.3994 33.7254 89.087 32.6594C89.3697 32.2213 89.159 30.1815 88.5674 27.6316C88.4373 27.0705 88.4449 27.0348 88.7921 26.5776C89.4241 25.7454 89.1533 24.5825 88.2366 24.1916C87.7668 23.9913 87.6485 23.5508 87.6485 22.0018C87.6485 21.6557 87.5992 21.5183 87.4751 21.5183C87.3797 21.5183 87.3017 21.4641 87.3017 21.3977C87.3017 19.7129 86.9276 18.2168 86.4667 18.0586C86.3218 18.0089 86.0425 17.8352 85.8457 17.6726C85.4267 17.3262 84.9424 17.2986 84.5009 17.5958ZM58.248 17.5843C58.2046 17.6313 58.1691 18.1263 58.169 18.6842C58.1688 21.4451 57.7278 24.3664 56.9207 26.952C56.5189 28.2397 56.4363 28.1348 56.1011 25.9106C55.9607 24.9788 55.7728 23.8494 55.6836 23.4007C54.8492 19.2048 54.6603 18.6512 53.8741 18.0985C52.5266 17.1513 52.0947 18.4917 52.7291 21.6513C53.2871 24.4304 53.7573 27.5873 53.8423 29.125C53.9043 30.2489 53.9647 30.5692 54.1821 30.9305C54.3277 31.172 54.4839 31.5109 54.5293 31.6834C55.3224 34.6938 59.527 29.6459 60.6446 24.3419C61.5212 20.1811 61.1753 17.8504 59.6562 17.6815L58.8989 17.5973L58.8187 19.549C58.7042 22.3392 58.3953 24.2222 57.6827 26.4754C57.3108 27.6514 56.783 28.723 56.648 28.5764C56.5703 28.4921 56.6072 28.29 56.7598 27.9649C57.9096 25.5148 59.1936 16.5576 58.248 17.5843ZM98.8044 17.8297C97.7235 17.9227 95.8428 18.0142 94.6252 18.033C93.4075 18.0517 92.4711 18.1087 92.5443 18.1594C92.6175 18.2101 92.9474 18.2524 93.2774 18.2535C93.6075 18.2545 93.9149 18.321 93.9607 18.4014C94.0232 18.5112 93.6134 18.5271 92.305 18.4656C89.5758 18.3374 89.1999 18.9801 90.8596 20.9376C91.2495 21.3977 91.8255 21.5571 93.3709 21.6329L94.8738 21.7065L94.858 22.1458C94.6748 27.2346 94.6773 30.9541 94.8644 31.4858C95.3517 32.8711 96.6064 32.8859 96.8443 31.5092C96.9467 30.9165 97.1259 30.9272 97.1362 31.5266C97.1428 31.9041 97.1641 31.9475 97.2437 31.7462C97.2984 31.6081 97.3467 29.2221 97.3512 26.444C97.3556 23.6659 97.3925 21.3928 97.433 21.3928C97.7354 21.3928 100.49 20.8504 100.751 20.7395C100.956 20.6524 101.146 20.4301 101.256 20.1491C101.352 19.9014 101.539 19.4639 101.67 19.1772C101.9 18.6757 101.901 18.6428 101.706 18.3199C101.595 18.1353 101.532 17.904 101.567 17.806C101.642 17.5927 101.548 17.5935 98.8044 17.8297ZM41.3486 18.0529C41.1577 18.1431 40.9303 18.3103 40.843 18.4245C40.7559 18.5385 40.6185 18.6319 40.5379 18.6319C40.4575 18.6319 40.2753 18.7342 40.1331 18.859L39.8746 19.0863L40.0792 20.114C40.2024 20.7333 40.3412 21.1418 40.4281 21.1418C40.6201 21.1418 40.6622 21.2723 41.1775 23.4635C41.4209 24.4988 41.7801 26.0202 41.9757 26.8442C42.3929 28.6028 42.3714 28.4205 42.1618 28.4205C41.9246 28.4205 41.8319 28.166 41.5222 26.6636C41.3728 25.9389 41.2095 25.2943 41.1592 25.2312C41.0454 25.0883 41.1423 25.8491 41.3703 26.8879C41.5793 27.8403 41.5258 28.0871 41.1445 27.9297C39.2737 27.1576 39.1576 29.6908 41.0206 30.6358C41.9497 31.1072 42.1402 31.2554 42.2783 31.614C42.6315 32.5318 43.6344 32.831 44.439 32.2586C44.6796 32.0874 44.767 32.0879 45.2823 32.2633C51.3244 34.3196 53.6161 29.7041 49.3146 24.1425C45.7362 19.516 42.8765 17.3299 41.3486 18.0529ZM65.4103 18.1883C64.9048 18.3839 64.3567 18.9026 64.107 19.4216C64.0143 19.6144 63.8219 19.8202 63.6796 19.8789C62.1079 20.5276 61.4136 27.5649 62.6416 30.3999C64.0826 33.7265 67.8683 33.1718 69.0441 29.4615C69.9232 26.6882 69.1259 19.523 67.8841 19.0356C67.7865 18.9973 67.5195 18.7496 67.2909 18.4852C66.822 17.9431 66.2695 17.8557 65.4103 18.1883ZM71.1449 18.1342C70.6732 18.34 70.6128 18.7122 70.7544 20.537C71.0948 24.9255 71.248 26.6558 71.3514 27.2828C71.4131 27.6578 71.4638 28.9223 71.4638 30.0925C71.4638 32.7751 71.4984 32.8179 73.3134 32.372C74.6771 32.0371 76.8173 31.8011 78.2743 31.8252C80.0799 31.8551 80.4037 31.6068 79.9678 30.5269C79.8764 30.3002 79.7744 29.9729 79.7413 29.7997C79.5988 29.0525 77.533 28.7875 75.2787 29.2271C74.1481 29.4475 74.2456 29.7334 73.9916 25.4518C73.8694 23.3919 73.6985 21.1983 73.6119 20.5771L73.4544 19.4476L73.4418 20.3021C73.4282 21.2135 73.2574 21.3479 73.1375 20.5413C73.0582 20.0072 72.856 18.9203 72.7783 18.6106C72.6843 18.2361 71.6217 17.9262 71.1449 18.1342ZM103.956 18.221C102.109 19.0114 101.791 28.8634 103.593 29.484C103.726 29.5301 104.039 29.8927 104.287 30.2898C106.656 34.0754 110.539 32.8111 111.691 27.8795C112.424 24.7396 112.198 19.169 111.309 18.4557L110.981 18.1927L110.726 18.5378C110.57 18.7501 110.36 18.8829 110.18 18.8829C109.435 18.8829 109.383 19.1009 109.376 22.2448C109.363 28.6265 108.746 30.3123 106.903 29.0016C106.527 28.7335 105.851 26.189 105.682 24.4047L105.582 23.338L105.619 24.7654C105.64 25.5595 105.614 26.1177 105.56 26.0236C105.133 25.2724 105.101 20.8985 105.521 20.5298C106.588 19.5923 105.275 17.6563 103.956 18.221ZM114.231 18.3533C113.681 18.6515 113.538 19.1611 113.573 20.6914C113.594 21.5976 113.563 21.9496 113.457 21.9883C113.349 22.0279 113.31 21.7473 113.301 20.8699C113.288 19.5612 113.175 18.914 113.025 19.2966C112.882 19.6631 113.055 28.9524 113.234 30.4523C113.43 32.1032 113.58 32.3892 114.314 32.5087C115.3 32.6692 115.319 32.5937 115.249 28.7603C115.183 25.1326 115.245 24.9029 115.742 26.919C117.117 32.4934 117.106 32.4618 117.735 32.4122L118.226 32.3737L118.471 31.4952C118.888 29.9944 119.256 28.1296 119.237 27.6048C119.219 27.1082 119.817 24.233 120.216 22.8987C120.415 22.2347 120.654 22.0633 120.654 22.585C120.654 22.7231 120.705 22.9207 120.768 23.0242C120.831 23.1278 120.993 23.7772 121.127 24.4674C121.262 25.1577 121.455 26.1459 121.555 26.6636C121.837 28.116 122.099 30.1961 122.099 30.9862C122.099 31.8998 122.214 32.1173 122.896 32.4922C124.259 33.2422 124.976 31.6837 124.48 29.048C123.923 26.0826 123.685 24.7563 123.424 23.1579C123.016 20.6663 122.635 19.5025 121.955 18.6753C121.365 17.9584 119.627 18.3912 119.503 19.2859C118.955 23.2224 117.609 28.7914 117.422 27.8961C116.928 25.5252 116.088 20.4414 116.088 19.8116C116.087 19.4652 115.585 18.5141 115.315 18.348C115.005 18.1578 114.589 18.1598 114.231 18.3533ZM71.5138 18.7397C71.4674 18.922 71.44 20.3418 71.4529 21.8948C71.4883 26.1877 71.2736 25.2987 70.9195 19.6859C70.859 18.7287 70.8708 18.6575 71.1205 18.4676C71.4611 18.2086 71.6207 18.319 71.5138 18.7397ZM115.606 19.981C115.663 20.1018 115.773 20.5959 115.85 21.0791C115.927 21.5622 116.09 22.479 116.212 23.1162C116.54 24.8249 116.32 25.1303 115.939 23.495C115.198 20.3059 115.058 18.8279 115.606 19.981ZM66.2286 20.2947C66.7644 21.0525 67.2118 23.7108 67.2266 26.2244C67.248 29.8689 66.3642 31.5786 64.8874 30.7496C64.0813 30.2971 63.7733 29.3748 64.4771 29.5209C64.813 29.5905 64.8124 29.5974 64.5868 28.1068C64.276 26.0531 64.4253 23.4229 64.936 21.9575C65.4648 20.4404 65.9186 19.8565 66.2286 20.2947ZM92.0188 20.8183C92.8561 21.0133 92.99 21.1006 92.6043 21.2003C92.2527 21.291 91.2068 21.0019 91.1449 20.7967C91.0871 20.6057 91.1081 20.6063 92.0188 20.8183ZM35.6097 21.9889C35.9373 24.3007 35.943 24.2737 35.1312 24.2773C34.5374 24.2798 34.5171 24.1449 34.8817 22.6284C35.3275 20.7751 35.4254 20.689 35.6097 21.9889ZM85.5767 22.868C85.7153 24.218 85.6912 24.274 84.9675 24.2773C84.3868 24.2799 84.3821 24.2511 84.718 22.7636C85.189 20.6784 85.3539 20.6984 85.5767 22.868ZM65.3458 21.717C65.3513 21.8632 65.3787 21.8929 65.4156 21.7929C65.449 21.7023 65.4449 21.594 65.4065 21.5523C65.3681 21.5106 65.3408 21.5847 65.3458 21.717ZM44.6975 22.6957C47.2182 24.6077 50.4975 29.0445 50.0112 29.8848C49.5711 30.6455 46.7578 30.5744 44.956 29.7571C44.4662 29.5349 44.5023 29.6548 44.0698 26.8118C43.8773 25.5475 43.6179 23.9708 43.4933 23.3081C43.1972 21.735 43.3372 21.6637 44.6975 22.6957ZM40.8283 24.1537C40.8283 24.2457 40.863 24.2833 40.9054 24.2374C40.9478 24.1913 40.9478 24.116 40.9054 24.07C40.863 24.0241 40.8283 24.0617 40.8283 24.1537ZM34.2065 28.1798C34.1003 28.6228 33.9888 29.1829 33.9585 29.4245C33.8043 30.6562 33.7783 31.1814 33.8716 31.1814C33.9283 31.1814 34.0082 30.834 34.049 30.4091C34.0899 29.9843 34.206 29.1945 34.3069 28.654C34.5359 27.4269 34.4659 27.0963 34.2065 28.1798ZM84.0349 28.3968C83.8697 29.2024 83.6283 31.6386 83.7716 31.056C83.8766 30.6283 84.3141 27.52 84.2751 27.4777C84.2519 27.4525 84.1438 27.866 84.0349 28.3968ZM75.799 32.6142L74.4117 32.758L76.7547 32.7604C78.3419 32.7622 79.0847 32.7204 79.0575 32.631C79.0019 32.4486 77.4728 32.4407 75.799 32.6142ZM73.6602 32.8756C73.6602 32.9101 73.6863 32.9384 73.718 32.9384C73.7498 32.9384 73.7759 32.9101 73.7759 32.8756C73.7759 32.8411 73.7498 32.8129 73.718 32.8129C73.6863 32.8129 73.6602 32.8411 73.6602 32.8756Z" fill="#D1C12B"/>
</g>
<path fill-rule="evenodd" clip-rule="evenodd" d="M7.41103 3.12793C4.95453 3.68889 4.71153 5.35334 6.6596 8.27437C6.88214 8.60807 7.11624 8.93009 7.17982 8.98982C7.35704 9.15648 8.1442 9.78471 8.9139 10.3739C9.60788 10.9051 11.9715 12.2281 12.2397 12.2355C12.318 12.2376 12.6422 12.3783 12.9601 12.5481C13.278 12.7179 13.6083 12.8573 13.6941 12.858C13.7798 12.8586 14.0139 12.937 14.2143 13.0324C14.4146 13.1277 14.9323 13.3258 15.3646 13.4728C17.4283 14.174 17.0648 15.5078 14.9477 15.0023C14.6811 14.9386 13.9948 14.7927 13.4225 14.678C12.8503 14.5633 12.278 14.4194 12.1508 14.358C10.7151 13.6649 7.81565 12.8776 7.81565 13.1807C7.81565 13.6332 9.29297 16.0046 9.96949 16.6381C10.7623 17.3806 12.8675 18.7574 13.2099 18.7574C13.2916 18.7574 13.581 18.8639 13.8529 18.9942C14.6701 19.3856 15.4788 19.6371 15.9176 19.6365C17.3629 19.6344 18.1266 20.1387 17.7137 20.8229C17.4809 21.2084 14.8586 21.3038 13.7615 20.9666C12.3913 20.5455 11.6618 20.6054 11.9595 21.1147C12.0772 21.3159 14.6493 23.1466 14.8169 23.1485C14.8845 23.1491 15.1706 23.2735 15.4528 23.4246C16.5635 24.0197 20.7684 24.3028 22.6709 23.9106C24.8837 23.4544 25.0206 23.4213 25.2568 23.2841C25.384 23.2102 25.6205 23.1497 25.7822 23.1497C27.2976 23.1497 30.3098 21.3508 32.0683 19.3955C33.5816 17.7128 33.6391 17.4317 32.6731 16.4357C32.4722 16.2287 32.2219 15.8616 32.1167 15.62C31.8646 15.0406 28.6867 11.5941 27.5842 10.7043C26.4823 9.81508 24.5587 8.40351 24.0143 8.08462C23.7841 7.94972 23.2836 7.64213 22.9021 7.40092C22.5206 7.1596 21.9224 6.8175 21.5727 6.64067C21.223 6.46372 20.8328 6.26531 20.7056 6.19981C20.2889 5.98483 18.525 5.31619 17.7577 5.08239C17.3444 4.9564 16.8762 4.79614 16.7173 4.72624C16.5583 4.65634 16.1421 4.51503 15.7924 4.41212C14.1366 3.9252 13.7441 3.80661 13.4143 3.69379C13.219 3.62702 12.9165 3.57243 12.7419 3.57243C12.5675 3.57243 12.3111 3.50479 12.1721 3.42221C11.5317 3.04096 8.58824 2.85912 7.41103 3.12793ZM36.8619 17.7236C36.269 18.3248 35.4376 20.4848 34.9767 22.6213C34.7253 23.7861 34.6696 23.9199 34.407 23.9882C32.6552 24.4433 32.1039 26.2195 33.4716 27.0012C33.7531 27.1621 34.0012 27.3129 34.0228 27.3364C34.0444 27.36 33.9786 27.797 33.8764 28.3077C33.2146 31.6177 33.4026 32.8129 34.585 32.8129C35.2864 32.8129 35.613 32.359 35.7755 31.1582C36.1689 28.2535 36.4985 26.9166 36.7625 27.1545C36.8615 27.2438 36.945 27.2444 37.026 27.1564C37.0912 27.0857 37.4985 27.0446 37.9315 27.0653L38.7187 27.1028L39.0263 28.4205C39.8145 31.7961 40.3376 32.9384 41.0959 32.9384C41.6906 32.9384 41.8869 32.3109 41.6887 31.0435C41.6196 30.6018 41.5117 29.9014 41.4488 29.4873C41.3859 29.0731 41.2506 28.3513 41.1479 27.8831C40.9668 27.057 40.9681 27.0235 41.1946 26.7536C41.9694 25.8297 41.7934 24.7208 40.7944 24.2318C40.2624 23.9714 40.1964 23.7185 40.1717 21.8458C40.1643 21.2861 40.1334 20.941 40.1027 21.0791C39.918 21.9127 39.7854 21.5536 39.6249 19.7853C39.518 18.6069 39.2539 18.0044 38.8444 18.0044C38.7649 18.0044 38.5454 17.8632 38.3565 17.6907C37.8819 17.2572 37.3095 17.2698 36.8619 17.7236ZM86.8635 17.5958C86.2662 17.9979 85.7232 19.2989 84.9949 22.0725L84.5034 23.9444L83.9875 24.1076C82.3872 24.6141 82.1113 27.1656 83.6568 27.1656C83.9463 27.1656 83.9455 27.4136 83.651 28.797C83.5263 29.3837 83.39 30.3541 83.3483 30.9533L83.2724 32.0429L83.6271 32.4279C84.5329 33.4111 85.3825 32.7894 85.6739 30.9305C86.2001 27.5712 86.3546 26.9438 86.6007 27.1656C86.7064 27.2608 86.7766 27.2627 86.8284 27.1717C86.9198 27.0112 88.4686 26.9947 88.5589 27.1533C88.5944 27.2154 88.8026 28.0389 89.0217 28.9831C89.7754 32.2317 90.7619 33.7254 91.4495 32.6594C91.7323 32.2213 91.5215 30.1815 90.93 27.6316C90.7998 27.0705 90.8074 27.0348 91.1546 26.5776C91.7866 25.7454 91.5159 24.5825 90.5991 24.1916C90.1293 23.9913 90.011 23.5508 90.011 22.0018C90.011 21.6557 89.9618 21.5183 89.8376 21.5183C89.7423 21.5183 89.6642 21.4641 89.6642 21.3977C89.6642 19.7129 89.2901 18.2168 88.8292 18.0586C88.6843 18.0089 88.4051 17.8352 88.2083 17.6726C87.7892 17.3262 87.305 17.2986 86.8635 17.5958ZM60.6105 17.5843C60.5672 17.6313 60.5317 18.1263 60.5316 18.6842C60.5313 21.4451 60.0903 24.3664 59.2833 26.952C58.8814 28.2397 58.7989 28.1348 58.4636 25.9106C58.3233 24.9788 58.1353 23.8494 58.0462 23.4007C57.2117 19.2048 57.0228 18.6512 56.2366 18.0985C54.8891 17.1513 54.4572 18.4917 55.0916 21.6513C55.6497 24.4304 56.1198 27.5873 56.2048 29.125C56.2669 30.2489 56.3272 30.5692 56.5447 30.9305C56.6902 31.172 56.8464 31.5109 56.8918 31.6834C57.6849 34.6938 61.8896 29.6459 63.0071 24.3419C63.8838 20.1811 63.5379 17.8504 62.0187 17.6815L61.2615 17.5973L61.1813 19.549C61.0667 22.3392 60.7578 24.2222 60.0452 26.4754C59.6733 27.6514 59.1456 28.723 59.0105 28.5764C58.9329 28.4921 58.9697 28.29 59.1223 27.9649C60.2721 25.5148 61.5562 16.5576 60.6105 17.5843ZM101.167 17.8297C100.086 17.9227 98.2054 18.0142 96.9877 18.033C95.77 18.0517 94.8336 18.1087 94.9068 18.1594C94.98 18.2101 95.3099 18.2524 95.64 18.2535C95.97 18.2545 96.2774 18.321 96.3232 18.4014C96.3858 18.5112 95.9759 18.5271 94.6675 18.4656C91.9383 18.3374 91.5625 18.9801 93.2221 20.9376C93.612 21.3977 94.1881 21.5571 95.7335 21.6329L97.2364 21.7065L97.2205 22.1458C97.0373 27.2346 97.0399 30.9541 97.2269 31.4858C97.7143 32.8711 98.9689 32.8859 99.2069 31.5092C99.3093 30.9165 99.4885 30.9272 99.4988 31.5266C99.5054 31.9041 99.5266 31.9475 99.6063 31.7462C99.661 31.6081 99.7093 29.2221 99.7138 26.444C99.7182 23.6659 99.7551 21.3928 99.7955 21.3928C100.098 21.3928 102.853 20.8504 103.114 20.7395C103.319 20.6524 103.509 20.4301 103.618 20.1491C103.715 19.9014 103.901 19.4639 104.033 19.1772C104.262 18.6757 104.264 18.6428 104.069 18.3199C103.957 18.1353 103.894 17.904 103.929 17.806C104.004 17.5927 103.911 17.5935 101.167 17.8297ZM43.7111 18.0529C43.5202 18.1431 43.2929 18.3103 43.2056 18.4245C43.1184 18.5385 42.9811 18.6319 42.9005 18.6319C42.82 18.6319 42.6378 18.7342 42.4956 18.859L42.2371 19.0863L42.4418 20.114C42.565 20.7333 42.7037 21.1418 42.7907 21.1418C42.9827 21.1418 43.0248 21.2723 43.54 23.4635C43.7835 24.4988 44.1427 26.0202 44.3383 26.8442C44.7555 28.6028 44.734 28.4205 44.5244 28.4205C44.2872 28.4205 44.1945 28.166 43.8848 26.6636C43.7354 25.9389 43.572 25.2943 43.5217 25.2312C43.408 25.0883 43.5049 25.8491 43.7328 26.8879C43.9419 27.8403 43.8883 28.0871 43.5071 27.9297C41.6362 27.1576 41.5202 29.6908 43.3831 30.6358C44.3123 31.1072 44.5028 31.2554 44.6408 31.614C44.9941 32.5318 45.997 32.831 46.8016 32.2586C47.0422 32.0874 47.1296 32.0879 47.6448 32.2633C53.6869 34.3196 55.9787 29.7041 51.6771 24.1425C48.0988 19.516 45.2391 17.3299 43.7111 18.0529ZM67.7729 18.1883C67.2673 18.3839 66.7192 18.9026 66.4695 19.4216C66.3768 19.6144 66.1844 19.8202 66.0421 19.8789C64.4705 20.5276 63.7761 27.5649 65.0041 30.3999C66.4451 33.7265 70.2309 33.1718 71.4067 29.4615C72.2857 26.6882 71.4884 19.523 70.2467 19.0356C70.149 18.9973 69.8821 18.7496 69.6534 18.4852C69.1845 17.9431 68.632 17.8557 67.7729 18.1883ZM73.5075 18.1342C73.0358 18.34 72.9753 18.7122 73.1169 20.537C73.4574 24.9255 73.6106 26.6558 73.7139 27.2828C73.7757 27.6578 73.8263 28.9223 73.8263 30.0925C73.8263 32.7751 73.861 32.8179 75.676 32.372C77.0397 32.0371 79.1799 31.8011 80.6368 31.8252C82.4425 31.8551 82.7663 31.6068 82.3303 30.5269C82.2389 30.3002 82.1369 29.9729 82.1039 29.7997C81.9613 29.0525 79.8956 28.7875 77.6413 29.2271C76.5107 29.4475 76.6081 29.7334 76.3541 25.4518C76.2319 23.3919 76.0611 21.1983 75.9745 20.5771L75.8169 19.4476L75.8043 20.3021C75.7908 21.2135 75.6199 21.3479 75.5 20.5413C75.4207 20.0072 75.2185 18.9203 75.1408 18.6106C75.0469 18.2361 73.9842 17.9262 73.5075 18.1342ZM106.318 18.221C104.471 19.0114 104.154 28.8634 105.955 29.484C106.089 29.5301 106.402 29.8927 106.65 30.2898C109.018 34.0754 112.901 32.8111 114.053 27.8795C114.787 24.7396 114.561 19.169 113.671 18.4557L113.343 18.1927L113.089 18.5378C112.932 18.7501 112.722 18.8829 112.543 18.8829C111.798 18.8829 111.745 19.1009 111.739 22.2448C111.726 28.6265 111.109 30.3123 109.266 29.0016C108.889 28.7335 108.213 26.189 108.045 24.4047L107.944 23.338L107.982 24.7654C108.002 25.5595 107.976 26.1177 107.923 26.0236C107.495 25.2724 107.464 20.8985 107.884 20.5298C108.95 19.5923 107.638 17.6563 106.318 18.221ZM116.594 18.3533C116.044 18.6515 115.9 19.1611 115.936 20.6914C115.957 21.5976 115.925 21.9496 115.82 21.9883C115.712 22.0279 115.673 21.7473 115.664 20.8699C115.651 19.5612 115.538 18.914 115.388 19.2966C115.245 19.6631 115.418 28.9524 115.596 30.4523C115.792 32.1032 115.942 32.3892 116.676 32.5087C117.663 32.6692 117.682 32.5937 117.612 28.7603C117.546 25.1326 117.607 24.9029 118.105 26.919C119.48 32.4934 119.468 32.4618 120.098 32.4122L120.589 32.3737L120.833 31.4952C121.251 29.9944 121.618 28.1296 121.599 27.6048C121.581 27.1082 122.18 24.233 122.579 22.8987C122.777 22.2347 123.016 22.0633 123.016 22.585C123.016 22.7231 123.068 22.9207 123.131 23.0242C123.194 23.1278 123.355 23.7772 123.49 24.4674C123.625 25.1577 123.817 26.1459 123.918 26.6636C124.2 28.116 124.461 30.1961 124.461 30.9862C124.461 31.8998 124.576 32.1173 125.258 32.4922C126.621 33.2422 127.338 31.6837 126.843 29.048C126.285 26.0826 126.047 24.7563 125.786 23.1579C125.379 20.6663 124.997 19.5025 124.317 18.6753C123.728 17.9584 121.99 18.3912 121.865 19.2859C121.317 23.2224 119.972 28.7914 119.785 27.8961C119.29 25.5252 118.451 20.4414 118.45 19.8116C118.45 19.4652 117.948 18.5141 117.677 18.348C117.367 18.1578 116.951 18.1598 116.594 18.3533ZM73.8764 18.7397C73.83 18.922 73.8026 20.3418 73.8154 21.8948C73.8508 26.1877 73.6361 25.2987 73.282 19.6859C73.2216 18.7287 73.2334 18.6575 73.4831 18.4676C73.8236 18.2086 73.9833 18.319 73.8764 18.7397ZM117.968 19.981C118.025 20.1018 118.136 20.5959 118.213 21.0791C118.29 21.5622 118.453 22.479 118.575 23.1162C118.902 24.8249 118.682 25.1303 118.302 23.495C117.561 20.3059 117.42 18.8279 117.968 19.981ZM68.5911 20.2947C69.1269 21.0525 69.5743 23.7108 69.5891 26.2244C69.6105 29.8689 68.7267 31.5786 67.25 30.7496C66.4439 30.2971 66.1359 29.3748 66.8397 29.5209C67.1755 29.5905 67.1749 29.5974 66.9494 28.1068C66.6385 26.0531 66.7879 23.4229 67.2985 21.9575C67.8273 20.4404 68.2812 19.8565 68.5911 20.2947ZM94.3814 20.8183C95.2186 21.0133 95.3526 21.1006 94.9668 21.2003C94.6153 21.291 93.5694 21.0019 93.5074 20.7967C93.4496 20.6057 93.4706 20.6063 94.3814 20.8183ZM37.9722 21.9889C38.2999 24.3007 38.3055 24.2737 37.4937 24.2773C36.9 24.2798 36.8796 24.1449 37.2443 22.6284C37.69 20.7751 37.7879 20.689 37.9722 21.9889ZM87.9393 22.868C88.0779 24.218 88.0537 24.274 87.33 24.2773C86.7494 24.2799 86.7446 24.2511 87.0806 22.7636C87.5515 20.6784 87.7164 20.6984 87.9393 22.868ZM67.7083 21.717C67.7139 21.8632 67.7413 21.8929 67.7782 21.7929C67.8116 21.7023 67.8074 21.594 67.769 21.5523C67.7307 21.5106 67.7034 21.5847 67.7083 21.717ZM47.0601 22.6957C49.5807 24.6077 52.86 29.0445 52.3738 29.8848C51.9337 30.6455 49.1204 30.5744 47.3186 29.7571C46.8288 29.5349 46.8648 29.6548 46.4323 26.8118C46.2399 25.5475 45.9804 23.9708 45.8558 23.3081C45.5597 21.735 45.6997 21.6637 47.0601 22.6957ZM43.1909 24.1537C43.1909 24.2457 43.2256 24.2833 43.268 24.2374C43.3103 24.1913 43.3103 24.116 43.268 24.07C43.2256 24.0241 43.1909 24.0617 43.1909 24.1537ZM36.569 28.1798C36.4629 28.6228 36.3513 29.1829 36.321 29.4245C36.1668 30.6562 36.1408 31.1814 36.2341 31.1814C36.2909 31.1814 36.3707 30.834 36.4116 30.4091C36.4525 29.9843 36.5685 29.1945 36.6695 28.654C36.8985 27.4269 36.8284 27.0963 36.569 28.1798ZM86.3975 28.3968C86.2323 29.2024 85.9909 31.6386 86.1341 31.056C86.2392 30.6283 86.6766 27.52 86.6377 27.4777C86.6144 27.4525 86.5064 27.866 86.3975 28.3968ZM78.1615 32.6142L76.7742 32.758L79.1172 32.7604C80.7045 32.7622 81.4472 32.7204 81.4201 32.631C81.3645 32.4486 79.8354 32.4407 78.1615 32.6142ZM76.0228 32.8756C76.0228 32.9101 76.0488 32.9384 76.0806 32.9384C76.1124 32.9384 76.1384 32.9101 76.1384 32.8756C76.1384 32.8411 76.1124 32.8129 76.0806 32.8129C76.0488 32.8129 76.0228 32.8411 76.0228 32.8756Z" fill="#A332CA"/>
<path fill-rule="evenodd" clip-rule="evenodd" d="M6.22988 3.12793C3.77338 3.68889 3.53038 5.35334 5.47844 8.27437C5.70098 8.60807 5.93508 8.93009 5.99867 8.98982C6.17589 9.15648 6.96305 9.78471 7.73275 10.3739C8.42673 10.9051 10.7904 12.2281 11.0586 12.2355C11.1369 12.2376 11.461 12.3783 11.7789 12.5481C12.0968 12.7179 12.4271 12.8573 12.5129 12.858C12.5987 12.8586 12.8328 12.937 13.0331 13.0324C13.2335 13.1277 13.7512 13.3258 14.1834 13.4728C16.2472 14.174 15.8836 15.5078 13.7665 15.0023C13.4999 14.9386 12.8136 14.7927 12.2414 14.678C11.6691 14.5633 11.0969 14.4194 10.9697 14.358C9.53399 13.6649 6.6345 12.8776 6.6345 13.1807C6.6345 13.6332 8.11182 16.0046 8.78834 16.6381C9.58116 17.3806 11.6863 18.7574 12.0288 18.7574C12.1105 18.7574 12.3998 18.8639 12.6718 18.9942C13.489 19.3856 14.2976 19.6371 14.7365 19.6365C16.1818 19.6344 16.9454 20.1387 16.5325 20.8229C16.2998 21.2084 13.6774 21.3038 12.5803 20.9666C11.2102 20.5455 10.4807 20.6054 10.7784 21.1147C10.8961 21.3159 13.4682 23.1466 13.6358 23.1485C13.7033 23.1491 13.9894 23.2735 14.2716 23.4246C15.3823 24.0197 19.5873 24.3028 21.4898 23.9106C23.7026 23.4544 23.8395 23.4213 24.0756 23.2841C24.2028 23.2102 24.4393 23.1497 24.6011 23.1497C26.1164 23.1497 29.1286 21.3508 30.8871 19.3955C32.4005 17.7128 32.458 17.4317 31.492 16.4357C31.291 16.2287 31.0407 15.8616 30.9355 15.62C30.6834 15.0406 27.5055 11.5941 26.403 10.7043C25.3012 9.81508 23.3775 8.40351 22.8331 8.08462C22.6029 7.94972 22.1025 7.64213 21.721 7.40092C21.3395 7.1596 20.7412 6.8175 20.3915 6.64067C20.0418 6.46372 19.6517 6.26531 19.5245 6.19981C19.1077 5.98483 17.3438 5.31619 16.5766 5.08239C16.1633 4.9564 15.6951 4.79614 15.5361 4.72624C15.3771 4.65634 14.961 4.51503 14.6113 4.41212C12.9554 3.9252 12.563 3.80661 12.2331 3.69379C12.0379 3.62702 11.7354 3.57243 11.5608 3.57243C11.3863 3.57243 11.1299 3.50479 10.991 3.42221C10.3505 3.04096 7.40709 2.85912 6.22988 3.12793ZM35.6808 17.7236C35.0879 18.3248 34.2564 20.4848 33.7955 22.6213C33.5442 23.7861 33.4885 23.9199 33.2258 23.9882C31.474 24.4433 30.9227 26.2195 32.2904 27.0012C32.5719 27.1621 32.82 27.3129 32.8416 27.3364C32.8633 27.36 32.7975 27.797 32.6953 28.3077C32.0334 31.6177 32.2214 32.8129 33.4038 32.8129C34.1052 32.8129 34.4318 32.359 34.5943 31.1582C34.9877 28.2535 35.3173 26.9166 35.5814 27.1545C35.6803 27.2438 35.7638 27.2444 35.8448 27.1564C35.91 27.0857 36.3173 27.0446 36.7504 27.0653L37.5375 27.1028L37.8452 28.4205C38.6334 31.7961 39.1565 32.9384 39.9147 32.9384C40.5094 32.9384 40.7057 32.3109 40.5076 31.0435C40.4384 30.6018 40.3306 29.9014 40.2677 29.4873C40.2048 29.0731 40.0694 28.3513 39.9667 27.8831C39.7856 27.057 39.787 27.0235 40.0135 26.7536C40.7882 25.8297 40.6123 24.7208 39.6132 24.2318C39.0812 23.9714 39.0152 23.7185 38.9906 21.8458C38.9832 21.2861 38.9522 20.941 38.9216 21.0791C38.7368 21.9127 38.6042 21.5536 38.4438 19.7853C38.3368 18.6069 38.0728 18.0044 37.6632 18.0044C37.5838 18.0044 37.3642 17.8632 37.1753 17.6907C36.7008 17.2572 36.1283 17.2698 35.6808 17.7236ZM85.6823 17.5958C85.0851 17.9979 84.5421 19.2989 83.8138 22.0725L83.3222 23.9444L82.8064 24.1076C81.2061 24.6141 80.9301 27.1656 82.4756 27.1656C82.7651 27.1656 82.7643 27.4136 82.4699 28.797C82.3451 29.3837 82.2088 30.3541 82.1671 30.9533L82.0912 32.0429L82.4459 32.4279C83.3517 33.4111 84.2014 32.7894 84.4927 30.9305C85.019 27.5712 85.1734 26.9438 85.4195 27.1656C85.5252 27.2608 85.5955 27.2627 85.6473 27.1717C85.7386 27.0112 87.2875 26.9947 87.3778 27.1533C87.4133 27.2154 87.6215 28.0389 87.8405 28.9831C88.5943 32.2317 89.5807 33.7254 90.2684 32.6594C90.5511 32.2213 90.3404 30.1815 89.7488 27.6316C89.6187 27.0705 89.6263 27.0348 89.9734 26.5776C90.6055 25.7454 90.3347 24.5825 89.418 24.1916C88.9482 23.9913 88.8299 23.5508 88.8299 22.0018C88.8299 21.6557 88.7806 21.5183 88.6565 21.5183C88.5611 21.5183 88.4831 21.4641 88.4831 21.3977C88.4831 19.7129 88.109 18.2168 87.648 18.0586C87.5032 18.0089 87.2239 17.8352 87.0271 17.6726C86.6081 17.3262 86.1238 17.2986 85.6823 17.5958ZM59.4294 17.5843C59.386 17.6313 59.3505 18.1263 59.3504 18.6842C59.3502 21.4451 58.9091 24.3664 58.1021 26.952C57.7003 28.2397 57.6177 28.1348 57.2825 25.9106C57.1421 24.9788 56.9541 23.8494 56.865 23.4007C56.0306 19.2048 55.8417 18.6512 55.0554 18.0985C53.7079 17.1513 53.276 18.4917 53.9105 21.6513C54.4685 24.4304 54.9387 27.5873 55.0237 29.125C55.0857 30.2489 55.1461 30.5692 55.3635 30.9305C55.5091 31.172 55.6653 31.5109 55.7107 31.6834C56.5037 34.6938 60.7084 29.6459 61.826 24.3419C62.7026 20.1811 62.3567 17.8504 60.8376 17.6815L60.0803 17.5973L60.0001 19.549C59.8856 22.3392 59.5766 24.2222 58.8641 26.4754C58.4922 27.6514 57.9644 28.723 57.8294 28.5764C57.7517 28.4921 57.7886 28.29 57.9412 27.9649C59.091 25.5148 60.375 16.5576 59.4294 17.5843ZM99.9858 17.8297C98.9049 17.9227 97.0242 18.0142 95.8065 18.033C94.5889 18.0517 93.6525 18.1087 93.7257 18.1594C93.7988 18.2101 94.1288 18.2524 94.4588 18.2535C94.7889 18.2545 95.0963 18.321 95.1421 18.4014C95.2046 18.5112 94.7948 18.5271 93.4864 18.4656C90.7571 18.3374 90.3813 18.9801 92.0409 20.9376C92.4309 21.3977 93.0069 21.5571 94.5523 21.6329L96.0552 21.7065L96.0394 22.1458C95.8561 27.2346 95.8587 30.9541 96.0457 31.4858C96.5331 32.8711 97.7878 32.8859 98.0257 31.5092C98.1281 30.9165 98.3073 30.9272 98.3176 31.5266C98.3242 31.9041 98.3455 31.9475 98.4251 31.7462C98.4798 31.6081 98.5281 29.2221 98.5326 26.444C98.537 23.6659 98.5739 21.3928 98.6144 21.3928C98.9168 21.3928 101.672 20.8504 101.933 20.7395C102.138 20.6524 102.327 20.4301 102.437 20.1491C102.534 19.9014 102.72 19.4639 102.852 19.1772C103.081 18.6757 103.083 18.6428 102.888 18.3199C102.776 18.1353 102.713 17.904 102.748 17.806C102.823 17.5927 102.73 17.5935 99.9858 17.8297ZM42.5299 18.0529C42.3391 18.1431 42.1117 18.3103 42.0244 18.4245C41.9372 18.5385 41.7999 18.6319 41.7193 18.6319C41.6389 18.6319 41.4567 18.7342 41.3145 18.859L41.056 19.0863L41.2606 20.114C41.3838 20.7333 41.5226 21.1418 41.6095 21.1418C41.8015 21.1418 41.8436 21.2723 42.3589 23.4635C42.6023 24.4988 42.9615 26.0202 43.1571 26.8442C43.5743 28.6028 43.5528 28.4205 43.3432 28.4205C43.106 28.4205 43.0133 28.166 42.7036 26.6636C42.5542 25.9389 42.3909 25.2943 42.3406 25.2312C42.2268 25.0883 42.3237 25.8491 42.5517 26.8879C42.7607 27.8403 42.7072 28.0871 42.3259 27.9297C40.4551 27.1576 40.339 29.6908 42.202 30.6358C43.1311 31.1072 43.3216 31.2554 43.4596 31.614C43.8129 32.5318 44.8158 32.831 45.6204 32.2586C45.861 32.0874 45.9484 32.0879 46.4636 32.2633C52.5058 34.3196 54.7975 29.7041 50.496 24.1425C46.9176 19.516 44.0579 17.3299 42.5299 18.0529ZM66.5917 18.1883C66.0862 18.3839 65.5381 18.9026 65.2884 19.4216C65.1956 19.6144 65.0033 19.8202 64.861 19.8789C63.2893 20.5276 62.595 27.5649 63.8229 30.3999C65.264 33.7265 69.0497 33.1718 70.2255 29.4615C71.1046 26.6882 70.3073 19.523 69.0655 19.0356C68.9678 18.9973 68.7009 18.7496 68.4723 18.4852C68.0034 17.9431 67.4509 17.8557 66.5917 18.1883ZM72.3263 18.1342C71.8546 18.34 71.7942 18.7122 71.9358 20.537C72.2762 24.9255 72.4294 26.6558 72.5328 27.2828C72.5945 27.6578 72.6451 28.9223 72.6451 30.0925C72.6451 32.7751 72.6798 32.8179 74.4948 32.372C75.8585 32.0371 77.9987 31.8011 79.4557 31.8252C81.2613 31.8551 81.5851 31.6068 81.1492 30.5269C81.0577 30.3002 80.9558 29.9729 80.9227 29.7997C80.7802 29.0525 78.7144 28.7875 76.4601 29.2271C75.3295 29.4475 75.4269 29.7334 75.173 25.4518C75.0508 23.3919 74.8799 21.1983 74.7933 20.5771L74.6357 19.4476L74.6231 20.3021C74.6096 21.2135 74.4388 21.3479 74.3189 20.5413C74.2396 20.0072 74.0374 18.9203 73.9597 18.6106C73.8657 18.2361 72.8031 17.9262 72.3263 18.1342ZM105.137 18.221C103.29 19.0114 102.973 28.8634 104.774 29.484C104.908 29.5301 105.22 29.8927 105.469 30.2898C107.837 34.0754 111.72 32.8111 112.872 27.8795C113.606 24.7396 113.38 19.169 112.49 18.4557L112.162 18.1927L111.908 18.5378C111.751 18.7501 111.541 18.8829 111.361 18.8829C110.616 18.8829 110.564 19.1009 110.558 22.2448C110.545 28.6265 109.928 30.3123 108.085 29.0016C107.708 28.7335 107.032 26.189 106.864 24.4047L106.763 23.338L106.8 24.7654C106.821 25.5595 106.795 26.1177 106.742 26.0236C106.314 25.2724 106.283 20.8985 106.702 20.5298C107.769 19.5923 106.457 17.6563 105.137 18.221ZM115.413 18.3533C114.863 18.6515 114.719 19.1611 114.754 20.6914C114.775 21.5976 114.744 21.9496 114.639 21.9883C114.531 22.0279 114.491 21.7473 114.483 20.8699C114.47 19.5612 114.356 18.914 114.207 19.2966C114.063 19.6631 114.237 28.9524 114.415 30.4523C114.611 32.1032 114.761 32.3892 115.495 32.5087C116.482 32.6692 116.5 32.5937 116.431 28.7603C116.365 25.1326 116.426 24.9029 116.923 26.919C118.298 32.4934 118.287 32.4618 118.917 32.4122L119.407 32.3737L119.652 31.4952C120.07 29.9944 120.437 28.1296 120.418 27.6048C120.4 27.1082 120.999 24.233 121.398 22.8987C121.596 22.2347 121.835 22.0633 121.835 22.585C121.835 22.7231 121.887 22.9207 121.95 23.0242C122.012 23.1278 122.174 23.7772 122.309 24.4674C122.444 25.1577 122.636 26.1459 122.737 26.6636C123.019 28.116 123.28 30.1961 123.28 30.9862C123.28 31.8998 123.395 32.1173 124.077 32.4922C125.44 33.2422 126.157 31.6837 125.662 29.048C125.104 26.0826 124.866 24.7563 124.605 23.1579C124.198 20.6663 123.816 19.5025 123.136 18.6753C122.547 17.9584 120.808 18.3912 120.684 19.2859C120.136 23.2224 118.791 28.7914 118.604 27.8961C118.109 25.5252 117.27 20.4414 117.269 19.8116C117.269 19.4652 116.766 18.5141 116.496 18.348C116.186 18.1578 115.77 18.1598 115.413 18.3533ZM72.6952 18.7397C72.6488 18.922 72.6214 20.3418 72.6343 21.8948C72.6696 26.1877 72.455 25.2987 72.1009 19.6859C72.0404 18.7287 72.0522 18.6575 72.3019 18.4676C72.6425 18.2086 72.8021 18.319 72.6952 18.7397ZM116.787 19.981C116.844 20.1018 116.954 20.5959 117.032 21.0791C117.109 21.5622 117.272 22.479 117.394 23.1162C117.721 24.8249 117.501 25.1303 117.121 23.495C116.38 20.3059 116.239 18.8279 116.787 19.981ZM67.41 20.2947C67.9458 21.0525 68.3932 23.7108 68.408 26.2244C68.4294 29.8689 67.5456 31.5786 66.0688 30.7496C65.2627 30.2971 64.9547 29.3748 65.6585 29.5209C65.9944 29.5905 65.9938 29.5974 65.7682 28.1068C65.4574 26.0531 65.6067 23.4229 66.1174 21.9575C66.6461 20.4404 67.1 19.8565 67.41 20.2947ZM93.2002 20.8183C94.0374 21.0133 94.1714 21.1006 93.7857 21.2003C93.4341 21.291 92.3882 21.0019 92.3262 20.7967C92.2684 20.6057 92.2895 20.6063 93.2002 20.8183ZM36.7911 21.9889C37.1187 24.3007 37.1244 24.2737 36.3126 24.2773C35.7188 24.2798 35.6985 24.1449 36.0631 22.6284C36.5089 20.7751 36.6068 20.689 36.7911 21.9889ZM86.7581 22.868C86.8967 24.218 86.8726 24.274 86.1489 24.2773C85.5682 24.2799 85.5635 24.2511 85.8994 22.7636C86.3704 20.6784 86.5352 20.6984 86.7581 22.868ZM66.5272 21.717C66.5327 21.8632 66.5601 21.8929 66.597 21.7929C66.6304 21.7023 66.6263 21.594 66.5879 21.5523C66.5495 21.5106 66.5222 21.5847 66.5272 21.717ZM45.8789 22.6957C48.3996 24.6077 51.6788 29.0445 51.1926 29.8848C50.7525 30.6455 47.9392 30.5744 46.1374 29.7571C45.6476 29.5349 45.6837 29.6548 45.2512 26.8118C45.0587 25.5475 44.7993 23.9708 44.6747 23.3081C44.3786 21.735 44.5186 21.6637 45.8789 22.6957ZM42.0097 24.1537C42.0097 24.2457 42.0444 24.2833 42.0868 24.2374C42.1291 24.1913 42.1291 24.116 42.0868 24.07C42.0444 24.0241 42.0097 24.0617 42.0097 24.1537ZM35.3879 28.1798C35.2817 28.6228 35.1702 29.1829 35.1399 29.4245C34.9857 30.6562 34.9597 31.1814 35.0529 31.1814C35.1097 31.1814 35.1896 30.834 35.2304 30.4091C35.2713 29.9843 35.3874 29.1945 35.4883 28.654C35.7173 27.4269 35.6473 27.0963 35.3879 28.1798ZM85.2163 28.3968C85.0511 29.2024 84.8097 31.6386 84.9529 31.056C85.058 30.6283 85.4955 27.52 85.4565 27.4777C85.4333 27.4525 85.3252 27.866 85.2163 28.3968ZM76.9803 32.6142L75.5931 32.758L77.9361 32.7604C79.5233 32.7622 80.2661 32.7204 80.2389 32.631C80.1833 32.4486 78.6542 32.4407 76.9803 32.6142ZM74.8416 32.8756C74.8416 32.9101 74.8676 32.9384 74.8994 32.9384C74.9312 32.9384 74.9572 32.9101 74.9572 32.8756C74.9572 32.8411 74.9312 32.8129 74.8994 32.8129C74.8676 32.8129 74.8416 32.8411 74.8416 32.8756Z" fill="white"/>
<defs>
<filter id="filter0_d_7778_49" x="4.1814" y="3" width="129.637" height="44" filterUnits="userSpaceOnUse" color-interpolation-filters="sRGB">
<feFlood flood-opacity="0" result="BackgroundImageFix"/>
<feColorMatrix in="SourceAlpha" type="matrix" values="0 0 0 0 0 0 0 0 0 0 0 0 0 0 0 0 0 0 127 0" result="hardAlpha"/>
<feOffset dx="4" dy="10"/>
<feGaussianBlur stdDeviation="2"/>
<feComposite in2="hardAlpha" operator="out"/>
<feColorMatrix type="matrix" values="0 0 0 0 0 0 0 0 0 0 0 0 0 0 0 0 0 0 0.37 0"/>
<feBlend mode="normal" in2="BackgroundImageFix" result="effect1_dropShadow_7778_49"/>
<feBlend mode="normal" in="SourceGraphic" in2="effect1_dropShadow_7778_49" result="shape"/>
</filter>
<filter id="filter1_f_7778_49" x="0" y="0" width="127.637" height="36" filterUnits="userSpaceOnUse" color-interpolation-filters="sRGB">
<feFlood flood-opacity="0" result="BackgroundImageFix"/>
<feBlend mode="normal" in="SourceGraphic" in2="BackgroundImageFix" result="shape"/>
<feGaussianBlur stdDeviation="1.5" result="effect1_foregroundBlur_7778_49"/>
</filter>
</defs>
</svg>
